STARTFONT 2.1
COMMENT Exported by Fony v1.4.7
FONT 10X20TG
SIZE 20 96 96
FONTBOUNDINGBOX 10 19 0 -6
STARTPROPERTIES 6
COPYRIGHT "Tangar @ http://tangar.info for TomeNET @ http://tomenet.eu"
RESOLUTION_X 96
RESOLUTION_Y 96
FONT_ASCENT 14
FONT_DESCENT 6
DEFAULT_CHAR 31
ENDPROPERTIES
CHARS 256
STARTCHAR 000
ENCODING 0
SWIDTH 720 0
DWIDTH 10 0
BBX 10 20 0 -6
BITMAP
8040
8040
4080
4080
2100
2100
1200
1200
0C00
0C00
0C00
0C00
1200
1200
2100
2100
4080
4080
8040
8040
ENDCHAR
STARTCHAR 001
ENCODING 1
SWIDTH 720 0
DWIDTH 10 0
BBX 9 1 1 -4
BITMAP
AA80
ENDCHAR
STARTCHAR 002
ENCODING 2
SWIDTH 720 0
DWIDTH 10 0
BBX 10 20 0 -6
BITMAP
FFC0
FFC0
FFC0
FFC0
FFC0
FFC0
FFC0
FFC0
FFC0
FFC0
FFC0
FFC0
FFC0
FFC0
FFC0
FFC0
FFC0
FFC0
FFC0
FFC0
ENDCHAR
STARTCHAR 003
ENCODING 3
SWIDTH 720 0
DWIDTH 10 0
BBX 10 1 0 -3
BITMAP
DB40
ENDCHAR
STARTCHAR 004
ENCODING 4
SWIDTH 720 0
DWIDTH 10 0
BBX 3 4 4 -4
BITMAP
40
A0
E0
40
ENDCHAR
STARTCHAR 005
ENCODING 5
SWIDTH 720 0
DWIDTH 10 0
BBX 10 3 0 -4
BITMAP
AA80
0000
5540
ENDCHAR
STARTCHAR 006
ENCODING 6
SWIDTH 720 0
DWIDTH 10 0
BBX 9 5 1 -4
BITMAP
2400
1200
A480
0000
AA80
ENDCHAR
STARTCHAR 007
ENCODING 7
SWIDTH 720 0
DWIDTH 10 0
BBX 10 1 0 -3
BITMAP
EEC0
ENDCHAR
STARTCHAR 008
ENCODING 8
SWIDTH 720 0
DWIDTH 10 0
BBX 10 3 0 2
BITMAP
5540
5540
AA80
ENDCHAR
STARTCHAR 009
ENCODING 9
SWIDTH 720 0
DWIDTH 10 0
BBX 3 3 4 0
BITMAP
A0
A0
40
ENDCHAR
STARTCHAR 010
ENCODING 10
SWIDTH 720 0
DWIDTH 10 0
BBX 10 18 0 -6
BITMAP
F9C0
FBC0
FBC0
F9C0
0000
CFC0
EFC0
EFC0
CFC0
0000
F9C0
FBC0
FBC0
F9C0
0000
CFC0
EFC0
EFC0
ENDCHAR
STARTCHAR 011
ENCODING 11
SWIDTH 720 0
DWIDTH 10 0
BBX 10 18 0 -6
BITMAP
FBC0
FBC0
FBC0
FBC0
0000
EFC0
EFC0
EFC0
EFC0
0000
FBC0
FBC0
FBC0
FBC0
0000
EFC0
EFC0
EFC0
ENDCHAR
STARTCHAR 012
ENCODING 12
SWIDTH 720 0
DWIDTH 10 0
BBX 10 18 0 -6
BITMAP
FBC0
FAC0
FBC0
FBC0
0000
EFC0
CFC0
EFC0
EFC0
0000
FBC0
FAC0
FBC0
FBC0
0000
EFC0
CFC0
EFC0
ENDCHAR
STARTCHAR 013
ENCODING 13
SWIDTH 720 0
DWIDTH 10 0
BBX 10 20 0 -6
BITMAP
FFC0
F5C0
60C0
2E80
D100
D100
D140
5140
1F40
9F00
EE80
D140
5F40
1F40
8E00
C000
FFC0
76C0
3680
8900
ENDCHAR
STARTCHAR 014
ENCODING 14
SWIDTH 720 0
DWIDTH 10 0
BBX 10 19 0 -6
BITMAP
0300
0300
0700
2780
3780
3580
7FC0
5BC0
77C0
F780
EFC0
FAC0
DEC0
9F00
1F00
3F80
6780
FFC0
FFC0
ENDCHAR
STARTCHAR 015
ENCODING 15
SWIDTH 720 0
DWIDTH 10 0
BBX 10 19 0 -6
BITMAP
0800
1C00
3600
3A00
7B00
7F00
FF00
F900
F600
F700
EB80
DF80
3F80
1FC0
3FC0
3FC0
7FC0
7FC0
FFC0
ENDCHAR
STARTCHAR 016
ENCODING 16
SWIDTH 720 0
DWIDTH 10 0
BBX 10 19 0 -6
BITMAP
FFC0
FFC0
C9C0
FFC0
E6C0
FFC0
D8C0
FFC0
E1C0
FFC0
C6C0
FFC0
D8C0
FFC0
E2C0
FFC0
C8C0
FFC0
FFC0
ENDCHAR
STARTCHAR 017
ENCODING 17
SWIDTH 720 0
DWIDTH 10 0
BBX 10 19 0 -6
BITMAP
FFC0
FFC0
C9C0
D3C0
E6C0
CCC0
D8C0
F0C0
E1C0
C3C0
C6C0
CCC0
D8C0
F1C0
E2C0
C4C0
C8C0
FFC0
FFC0
ENDCHAR
STARTCHAR 018
ENCODING 18
SWIDTH 720 0
DWIDTH 10 0
BBX 10 19 0 -6
BITMAP
FFC0
FFC0
C8C0
D8C0
E8C0
C8C0
D8C0
F8C0
E8C0
C8C0
C8C0
C8C0
D8C0
F8C0
E8C0
C8C0
C8C0
FFC0
FFC0
ENDCHAR
STARTCHAR 019
ENCODING 19
SWIDTH 720 0
DWIDTH 10 0
BBX 10 19 0 -6
BITMAP
FFC0
FFC0
D2C0
E4C0
C9C0
D2C0
FFC0
C0C0
FFC0
DCC0
FFC0
CEC0
FFC0
DCC0
FFC0
DEC0
FFC0
FFC0
FFC0
ENDCHAR
STARTCHAR 020
ENCODING 20
SWIDTH 720 0
DWIDTH 10 0
BBX 10 19 0 -6
BITMAP
FFC0
FFC0
D2C0
E4C0
C9C0
D2C0
FFC0
C0C0
CCC0
DCC0
DCC0
CEC0
DEC0
DCC0
CCC0
DEC0
CCC0
FFC0
FFC0
ENDCHAR
STARTCHAR 021
ENCODING 21
SWIDTH 720 0
DWIDTH 10 0
BBX 10 19 0 -6
BITMAP
FFC0
FFC0
D8C0
E8C0
C8C0
D8C0
FFC0
C0C0
CCC0
DCC0
DCC0
CEC0
DEC0
DCC0
CCC0
DEC0
CCC0
FFC0
FFC0
ENDCHAR
STARTCHAR 022
ENCODING 22
SWIDTH 720 0
DWIDTH 10 0
BBX 10 20 0 -6
BITMAP
8040
8040
4080
4080
2100
2100
1200
1200
0C00
0C00
0C00
0C00
1200
1200
2100
2100
4080
4080
8040
8040
ENDCHAR
STARTCHAR 023
ENCODING 23
SWIDTH 720 0
DWIDTH 10 0
BBX 10 20 0 -6
BITMAP
8040
8040
4080
4080
2100
2100
1200
1200
0C00
0C00
0C00
0C00
1200
1200
2100
2100
4080
4080
8040
8040
ENDCHAR
STARTCHAR 024
ENCODING 24
SWIDTH 720 0
DWIDTH 10 0
BBX 10 20 0 -6
BITMAP
8040
8040
4080
4080
2100
2100
1200
1200
0C00
0C00
0C00
0C00
1200
1200
2100
2100
4080
4080
8040
8040
ENDCHAR
STARTCHAR 025
ENCODING 25
SWIDTH 720 0
DWIDTH 10 0
BBX 10 20 0 -6
BITMAP
8040
8040
4080
4080
2100
2100
1200
1200
0C00
0C00
0C00
0C00
1200
1200
2100
2100
4080
4080
8040
8040
ENDCHAR
STARTCHAR 026
ENCODING 26
SWIDTH 720 0
DWIDTH 10 0
BBX 10 20 0 -6
BITMAP
8040
8040
4080
4080
2100
2100
1200
1200
0C00
0C00
0C00
0C00
1200
1200
2100
2100
4080
4080
8040
8040
ENDCHAR
STARTCHAR 027
ENCODING 27
SWIDTH 720 0
DWIDTH 10 0
BBX 10 20 0 -6
BITMAP
8040
8040
4080
4080
2100
2100
1200
1200
0C00
0C00
0C00
0C00
1200
1200
2100
2100
4080
4080
8040
8040
ENDCHAR
STARTCHAR 028
ENCODING 28
SWIDTH 720 0
DWIDTH 10 0
BBX 10 20 0 -6
BITMAP
8040
8040
4080
4080
2100
2100
1200
1200
0C00
0C00
0C00
0C00
1200
1200
2100
2100
4080
4080
8040
8040
ENDCHAR
STARTCHAR 029
ENCODING 29
SWIDTH 720 0
DWIDTH 10 0
BBX 10 20 0 -6
BITMAP
8040
8040
4080
4080
2100
2100
1200
1200
0C00
0C00
0C00
0C00
1200
1200
2100
2100
4080
4080
8040
8040
ENDCHAR
STARTCHAR 030
ENCODING 30
SWIDTH 720 0
DWIDTH 10 0
BBX 10 20 0 -6
BITMAP
8040
8040
4080
4080
2100
2100
1200
1200
0C00
0C00
0C00
0C00
1200
1200
2100
2100
4080
4080
8040
8040
ENDCHAR
STARTCHAR 031
ENCODING 31
SWIDTH 720 0
DWIDTH 10 0
BBX 10 20 0 -6
BITMAP
8040
8040
4080
4080
2100
2100
1200
1200
0C00
0C00
0C00
0C00
1200
1200
2100
2100
4080
4080
8040
8040
ENDCHAR
STARTCHAR 032
ENCODING 32
SWIDTH 720 0
DWIDTH 10 0
BBX 0 0 0 0
BITMAP
ENDCHAR
STARTCHAR 033
ENCODING 33
SWIDTH 720 0
DWIDTH 10 0
BBX 3 15 4 -3
BITMAP
60
E0
E0
A0
A0
E0
E0
E0
E0
C0
40
40
00
40
40
ENDCHAR
STARTCHAR 034
ENCODING 34
SWIDTH 720 0
DWIDTH 10 0
BBX 5 4 3 6
BITMAP
D8
D8
D8
88
ENDCHAR
STARTCHAR 035
ENCODING 35
SWIDTH 720 0
DWIDTH 10 0
BBX 7 8 1 1
BITMAP
6C
FE
FE
6C
6C
FE
FE
6C
ENDCHAR
STARTCHAR 036
ENCODING 36
SWIDTH 720 0
DWIDTH 10 0
BBX 8 18 1 -5
BITMAP
08
08
3C
7E
DB
99
98
D8
7C
3E
1B
19
99
DA
7E
3C
10
10
ENDCHAR
STARTCHAR 037
ENCODING 37
SWIDTH 720 0
DWIDTH 10 0
BBX 8 15 1 -4
BITMAP
02
06
46
A4
AC
E8
58
1A
17
15
25
22
60
60
40
ENDCHAR
STARTCHAR 038
ENCODING 38
SWIDTH 720 0
DWIDTH 10 0
BBX 9 13 1 -3
BITMAP
1800
3C00
6400
4400
6C00
3800
3180
7900
CF00
8E00
CE00
7F00
3100
ENDCHAR
STARTCHAR 039
ENCODING 39
SWIDTH 720 0
DWIDTH 10 0
BBX 3 9 4 4
BITMAP
40
E0
E0
E0
60
20
20
40
80
ENDCHAR
STARTCHAR 040
ENCODING 40
SWIDTH 720 0
DWIDTH 10 0
BBX 3 16 4 -4
BITMAP
20
40
40
C0
80
80
80
80
80
80
80
80
C0
40
40
20
ENDCHAR
STARTCHAR 041
ENCODING 41
SWIDTH 720 0
DWIDTH 10 0
BBX 3 16 4 -4
BITMAP
80
40
40
60
20
20
20
20
20
20
20
20
60
40
40
80
ENDCHAR
STARTCHAR 042
ENCODING 42
SWIDTH 720 0
DWIDTH 10 0
BBX 7 8 2 0
BITMAP
D6
7C
38
7E
FC
38
7C
D6
ENDCHAR
STARTCHAR 043
ENCODING 43
SWIDTH 720 0
DWIDTH 10 0
BBX 8 9 1 -1
BITMAP
18
18
18
FF
FF
FF
18
18
18
ENDCHAR
STARTCHAR 044
ENCODING 44
SWIDTH 720 0
DWIDTH 10 0
BBX 4 6 3 -4
BITMAP
70
70
70
30
60
C0
ENDCHAR
STARTCHAR 045
ENCODING 45
SWIDTH 720 0
DWIDTH 10 0
BBX 8 2 1 2
BITMAP
FF
FF
ENDCHAR
STARTCHAR 046
ENCODING 46
SWIDTH 720 0
DWIDTH 10 0
BBX 2 3 4 2
BITMAP
C0
C0
C0
ENDCHAR
STARTCHAR 047
ENCODING 47
SWIDTH 720 0
DWIDTH 10 0
BBX 8 16 1 -4
BITMAP
01
03
03
07
06
0C
0C
18
18
30
30
60
60
C0
C0
80
ENDCHAR
STARTCHAR 048
ENCODING 48
SWIDTH 720 0
DWIDTH 10 0
BBX 6 14 2 -3
BITMAP
1C
3C
24
64
64
C4
CC
CC
8C
98
98
90
F0
E0
ENDCHAR
STARTCHAR 049
ENCODING 49
SWIDTH 720 0
DWIDTH 10 0
BBX 5 13 2 -3
BITMAP
10
10
30
F0
30
30
30
30
30
30
30
30
F8
ENDCHAR
STARTCHAR 050
ENCODING 50
SWIDTH 720 0
DWIDTH 10 0
BBX 6 14 2 -3
BITMAP
38
FC
FC
CC
CC
0C
0C
18
38
70
60
CC
FC
FC
ENDCHAR
STARTCHAR 051
ENCODING 51
SWIDTH 720 0
DWIDTH 10 0
BBX 7 13 2 -3
BITMAP
7C
FE
C6
86
0E
0C
18
1C
0E
86
C6
FE
7C
ENDCHAR
STARTCHAR 052
ENCODING 52
SWIDTH 720 0
DWIDTH 10 0
BBX 7 13 1 -3
BITMAP
20
60
66
66
66
FE
FE
0C
0C
0C
0C
1C
1C
ENDCHAR
STARTCHAR 053
ENCODING 53
SWIDTH 720 0
DWIDTH 10 0
BBX 6 13 2 -3
BITMAP
FC
CC
80
80
C0
F8
FC
0C
04
84
8C
FC
78
ENDCHAR
STARTCHAR 054
ENCODING 54
SWIDTH 720 0
DWIDTH 10 0
BBX 6 13 2 -3
BITMAP
38
7C
C4
80
80
B8
FC
CC
84
84
CC
FC
78
ENDCHAR
STARTCHAR 055
ENCODING 55
SWIDTH 720 0
DWIDTH 10 0
BBX 8 13 1 -3
BITMAP
FF
FF
83
82
06
04
0C
0C
08
18
18
30
70
ENDCHAR
STARTCHAR 056
ENCODING 56
SWIDTH 720 0
DWIDTH 10 0
BBX 7 13 2 -3
BITMAP
1E
36
66
64
6C
38
38
78
6C
CC
CC
D8
F0
ENDCHAR
STARTCHAR 057
ENCODING 57
SWIDTH 720 0
DWIDTH 10 0
BBX 7 13 1 -3
BITMAP
1C
3E
66
66
66
7E
3E
0C
0C
18
18
70
E0
ENDCHAR
STARTCHAR 058
ENCODING 58
SWIDTH 720 0
DWIDTH 10 0
BBX 2 9 4 -2
BITMAP
C0
C0
C0
00
00
00
C0
C0
C0
ENDCHAR
STARTCHAR 059
ENCODING 59
SWIDTH 720 0
DWIDTH 10 0
BBX 3 11 4 -4
BITMAP
60
60
60
00
00
00
60
60
60
40
80
ENDCHAR
STARTCHAR 060
ENCODING 60
SWIDTH 720 0
DWIDTH 10 0
BBX 10 20 0 -6
BITMAP
0040
0040
00C0
00C0
02C0
0AC0
0AC0
2AC0
2AC0
AAC0
AAC0
AAC0
2AC0
2AC0
0AC0
0AC0
02C0
00C0
00C0
0040
ENDCHAR
STARTCHAR 061
ENCODING 61
SWIDTH 720 0
DWIDTH 10 0
BBX 8 6 1 0
BITMAP
FF
FF
00
00
FF
FF
ENDCHAR
STARTCHAR 062
ENCODING 62
SWIDTH 720 0
DWIDTH 10 0
BBX 10 20 0 -6
BITMAP
8000
8000
C000
D000
D000
D400
D500
D500
D540
D540
D540
D540
D500
D500
D400
D000
D000
C000
8000
8000
ENDCHAR
STARTCHAR 063
ENCODING 63
SWIDTH 720 0
DWIDTH 10 0
BBX 7 15 2 -4
BITMAP
38
7C
EC
C6
82
02
06
0C
38
30
30
00
00
30
30
ENDCHAR
STARTCHAR 064
ENCODING 64
SWIDTH 720 0
DWIDTH 10 0
BBX 8 18 1 -5
BITMAP
3C
3C
3C
3C
18
7E
7E
7E
DB
99
BD
3C
24
24
24
24
66
66
ENDCHAR
STARTCHAR 065
ENCODING 65
SWIDTH 720 0
DWIDTH 10 0
BBX 8 15 1 -4
BITMAP
70
F8
FC
9C
24
66
66
66
66
7F
7F
C3
C3
C3
E7
ENDCHAR
STARTCHAR 066
ENCODING 66
SWIDTH 720 0
DWIDTH 10 0
BBX 7 13 1 -3
BITMAP
F8
FC
6C
64
64
7C
7C
66
66
66
6E
FC
F8
ENDCHAR
STARTCHAR 067
ENCODING 67
SWIDTH 720 0
DWIDTH 10 0
BBX 8 14 1 -3
BITMAP
1C
7E
7F
E3
C3
86
80
80
80
80
C3
E7
7E
3C
ENDCHAR
STARTCHAR 068
ENCODING 68
SWIDTH 720 0
DWIDTH 10 0
BBX 8 15 1 -4
BITMAP
FC
7E
7F
47
43
43
43
43
43
43
43
47
7F
7E
FC
ENDCHAR
STARTCHAR 069
ENCODING 69
SWIDTH 720 0
DWIDTH 10 0
BBX 8 15 1 -4
BITMAP
FF
7F
7E
40
40
40
70
70
70
40
40
40
7E
7F
FF
ENDCHAR
STARTCHAR 070
ENCODING 70
SWIDTH 720 0
DWIDTH 10 0
BBX 8 15 1 -4
BITMAP
FF
FF
63
63
60
60
60
7E
7E
60
60
60
60
E0
E0
ENDCHAR
STARTCHAR 071
ENCODING 71
SWIDTH 720 0
DWIDTH 10 0
BBX 8 15 1 -4
BITMAP
3E
7F
7F
E3
C0
80
80
80
8F
CF
C3
E3
7F
7E
1C
ENDCHAR
STARTCHAR 072
ENCODING 72
SWIDTH 720 0
DWIDTH 10 0
BBX 8 15 1 -4
BITMAP
E7
C6
C6
C6
C6
C6
FE
FE
C6
C6
C6
C6
C6
C6
E7
ENDCHAR
STARTCHAR 073
ENCODING 73
SWIDTH 720 0
DWIDTH 10 0
BBX 5 14 3 -3
BITMAP
F8
F8
20
20
20
20
20
20
20
20
20
20
F8
F8
ENDCHAR
STARTCHAR 074
ENCODING 74
SWIDTH 720 0
DWIDTH 10 0
BBX 8 15 1 -4
BITMAP
0F
06
06
06
06
06
06
06
06
C6
86
C6
6E
7C
3C
ENDCHAR
STARTCHAR 075
ENCODING 75
SWIDTH 720 0
DWIDTH 10 0
BBX 8 15 1 -4
BITMAP
63
E7
C7
45
4C
48
58
78
78
48
49
4D
4F
67
E3
ENDCHAR
STARTCHAR 076
ENCODING 76
SWIDTH 720 0
DWIDTH 10 0
BBX 8 14 1 -3
BITMAP
F0
60
60
60
60
60
60
60
60
60
63
63
7F
7F
ENDCHAR
STARTCHAR 077
ENCODING 77
SWIDTH 720 0
DWIDTH 10 0
BBX 8 16 1 -4
BITMAP
81
C3
C3
C3
C3
E7
E5
A5
BD
BD
99
99
99
81
C3
C3
ENDCHAR
STARTCHAR 078
ENCODING 78
SWIDTH 720 0
DWIDTH 10 0
BBX 7 14 1 -4
BITMAP
82
82
C2
E2
F2
B2
9A
9A
8E
8E
86
82
82
82
ENDCHAR
STARTCHAR 079
ENCODING 79
SWIDTH 720 0
DWIDTH 10 0
BBX 8 14 1 -4
BITMAP
18
3C
7E
E3
C1
C1
91
81
81
C3
E6
7E
3C
18
ENDCHAR
STARTCHAR 080
ENCODING 80
SWIDTH 720 0
DWIDTH 10 0
BBX 8 15 1 -4
BITMAP
FC
7E
3F
23
21
21
23
3E
3E
30
20
20
60
60
60
ENDCHAR
STARTCHAR 081
ENCODING 81
SWIDTH 720 0
DWIDTH 10 0
BBX 8 16 1 -5
BITMAP
1C
3E
7E
E7
C3
C1
81
81
81
8D
CD
47
66
3F
03
01
ENDCHAR
STARTCHAR 082
ENCODING 82
SWIDTH 720 0
DWIDTH 10 0
BBX 7 14 2 -3
BITMAP
F8
FC
8E
86
86
8C
FC
F8
98
8C
8C
8E
E6
E6
ENDCHAR
STARTCHAR 083
ENCODING 83
SWIDTH 720 0
DWIDTH 10 0
BBX 8 14 1 -3
BITMAP
1C
3E
37
63
40
40
78
3C
06
03
C3
F3
7E
1C
ENDCHAR
STARTCHAR 084
ENCODING 84
SWIDTH 720 0
DWIDTH 10 0
BBX 8 14 1 -3
BITMAP
FF
FF
99
18
18
18
18
18
18
18
18
18
18
3C
ENDCHAR
STARTCHAR 085
ENCODING 85
SWIDTH 720 0
DWIDTH 10 0
BBX 8 14 1 -3
BITMAP
C3
C3
C3
C3
C3
C3
C3
C3
C3
C3
C3
66
7E
3C
ENDCHAR
STARTCHAR 086
ENCODING 86
SWIDTH 720 0
DWIDTH 10 0
BBX 8 14 1 -3
BITMAP
E7
C3
C3
C3
C3
C3
42
66
66
24
24
24
3C
18
ENDCHAR
STARTCHAR 087
ENCODING 87
SWIDTH 720 0
DWIDTH 10 0
BBX 8 13 1 -3
BITMAP
81
81
81
81
81
81
99
99
BD
E7
C3
C3
81
ENDCHAR
STARTCHAR 088
ENCODING 88
SWIDTH 720 0
DWIDTH 10 0
BBX 8 15 1 -3
BITMAP
C3
42
62
24
3C
18
18
18
18
24
24
66
42
42
C3
ENDCHAR
STARTCHAR 089
ENCODING 89
SWIDTH 720 0
DWIDTH 10 0
BBX 8 16 1 -4
BITMAP
C3
C3
42
42
66
24
3C
18
18
18
18
18
18
18
18
3C
ENDCHAR
STARTCHAR 090
ENCODING 90
SWIDTH 720 0
DWIDTH 10 0
BBX 8 13 1 -2
BITMAP
FF
83
83
06
0C
08
18
30
60
40
C1
C1
FF
ENDCHAR
STARTCHAR 091
ENCODING 91
SWIDTH 720 0
DWIDTH 10 0
BBX 4 17 3 -5
BITMAP
F0
F0
80
80
80
80
80
80
80
80
80
80
80
80
80
F0
F0
ENDCHAR
STARTCHAR 092
ENCODING 92
SWIDTH 720 0
DWIDTH 10 0
BBX 6 15 2 -4
BITMAP
80
80
C0
C0
60
60
20
30
10
18
18
0C
0C
04
04
ENDCHAR
STARTCHAR 093
ENCODING 93
SWIDTH 720 0
DWIDTH 10 0
BBX 5 17 3 -5
BITMAP
F8
F8
18
18
D8
D8
D8
18
18
18
18
18
18
18
18
F8
F8
ENDCHAR
STARTCHAR 094
ENCODING 94
SWIDTH 720 0
DWIDTH 10 0
BBX 8 8 1 3
BITMAP
18
18
3C
3C
7E
66
42
C3
ENDCHAR
STARTCHAR 095
ENCODING 95
SWIDTH 720 0
DWIDTH 10 0
BBX 8 2 1 -5
BITMAP
FF
FF
ENDCHAR
STARTCHAR 096
ENCODING 96
SWIDTH 720 0
DWIDTH 10 0
BBX 3 6 3 6
BITMAP
C0
C0
C0
C0
40
60
ENDCHAR
STARTCHAR 097
ENCODING 97
SWIDTH 720 0
DWIDTH 10 0
BBX 6 8 2 -1
BITMAP
78
F8
D8
98
98
98
DC
6C
ENDCHAR
STARTCHAR 098
ENCODING 98
SWIDTH 720 0
DWIDTH 10 0
BBX 7 15 1 -2
BITMAP
40
60
60
60
60
60
7C
7E
66
62
62
66
7E
7C
C0
ENDCHAR
STARTCHAR 099
ENCODING 99
SWIDTH 720 0
DWIDTH 10 0
BBX 6 9 2 -1
BITMAP
78
FC
C4
C0
C0
C0
C4
FC
78
ENDCHAR
STARTCHAR 100
ENCODING 100
SWIDTH 720 0
DWIDTH 10 0
BBX 7 14 2 -1
BITMAP
06
04
04
04
04
04
7C
FC
CC
84
84
84
CC
7E
ENDCHAR
STARTCHAR 101
ENCODING 101
SWIDTH 720 0
DWIDTH 10 0
BBX 6 10 2 -1
BITMAP
38
7C
C4
C4
FC
C0
80
C4
FC
78
ENDCHAR
STARTCHAR 102
ENCODING 102
SWIDTH 720 0
DWIDTH 10 0
BBX 7 14 1 -1
BITMAP
1C
1C
1C
10
10
10
12
12
FE
90
10
10
10
18
ENDCHAR
STARTCHAR 103
ENCODING 103
SWIDTH 720 0
DWIDTH 10 0
BBX 6 13 2 -5
BITMAP
3C
48
C8
C8
D8
70
30
78
50
D0
90
A0
C0
ENDCHAR
STARTCHAR 104
ENCODING 104
SWIDTH 720 0
DWIDTH 10 0
BBX 6 13 2 -1
BITMAP
80
80
80
80
80
80
80
F0
90
90
94
94
9C
ENDCHAR
STARTCHAR 105
ENCODING 105
SWIDTH 720 0
DWIDTH 10 0
BBX 3 10 4 -1
BITMAP
C0
C0
00
00
80
80
80
80
A0
E0
ENDCHAR
STARTCHAR 106
ENCODING 106
SWIDTH 720 0
DWIDTH 10 0
BBX 6 15 2 -5
BITMAP
0C
0C
00
00
08
08
08
08
08
08
08
08
08
D8
70
ENDCHAR
STARTCHAR 107
ENCODING 107
SWIDTH 720 0
DWIDTH 10 0
BBX 7 11 1 -1
BITMAP
C0
40
4C
5C
70
60
60
58
4C
C6
C6
ENDCHAR
STARTCHAR 108
ENCODING 108
SWIDTH 720 0
DWIDTH 10 0
BBX 6 14 2 -1
BITMAP
1C
34
34
24
2C
28
68
70
60
C0
C8
58
50
70
ENDCHAR
STARTCHAR 109
ENCODING 109
SWIDTH 720 0
DWIDTH 10 0
BBX 8 9 1 -1
BITMAP
7E
FF
DB
93
93
93
82
86
84
ENDCHAR
STARTCHAR 110
ENCODING 110
SWIDTH 720 0
DWIDTH 10 0
BBX 8 10 1 -1
BITMAP
60
78
FC
FC
6C
6C
6C
6D
67
E3
ENDCHAR
STARTCHAR 111
ENCODING 111
SWIDTH 720 0
DWIDTH 10 0
BBX 6 9 2 -1
BITMAP
30
78
CC
84
94
84
84
CC
78
ENDCHAR
STARTCHAR 112
ENCODING 112
SWIDTH 720 0
DWIDTH 10 0
BBX 6 10 2 -5
BITMAP
78
7C
64
64
6C
78
40
40
C0
C0
ENDCHAR
STARTCHAR 113
ENCODING 113
SWIDTH 720 0
DWIDTH 10 0
BBX 7 11 2 -5
BITMAP
08
78
C8
88
88
F8
78
08
08
0A
0C
ENDCHAR
STARTCHAR 114
ENCODING 114
SWIDTH 720 0
DWIDTH 10 0
BBX 7 10 2 -1
BITMAP
20
7A
7E
6C
40
40
40
C0
C0
C0
ENDCHAR
STARTCHAR 115
ENCODING 115
SWIDTH 720 0
DWIDTH 10 0
BBX 6 9 2 -1
BITMAP
78
FC
C4
40
30
18
88
F8
70
ENDCHAR
STARTCHAR 116
ENCODING 116
SWIDTH 720 0
DWIDTH 10 0
BBX 7 12 1 -1
BITMAP
10
10
10
1E
7C
F0
10
10
10
10
1C
1C
ENDCHAR
STARTCHAR 117
ENCODING 117
SWIDTH 720 0
DWIDTH 10 0
BBX 7 8 2 -1
BITMAP
C6
C6
C6
C6
C6
C6
7C
38
ENDCHAR
STARTCHAR 118
ENCODING 118
SWIDTH 720 0
DWIDTH 10 0
BBX 8 8 1 -1
BITMAP
C3
43
62
66
26
3C
1C
18
ENDCHAR
STARTCHAR 119
ENCODING 119
SWIDTH 720 0
DWIDTH 10 0
BBX 9 9 1 -1
BITMAP
C180
C180
4100
4100
4900
5D00
3600
3600
2200
ENDCHAR
STARTCHAR 120
ENCODING 120
SWIDTH 720 0
DWIDTH 10 0
BBX 7 9 2 -1
BITMAP
82
44
6C
38
10
10
38
6C
C6
ENDCHAR
STARTCHAR 121
ENCODING 121
SWIDTH 720 0
DWIDTH 10 0
BBX 8 12 1 -5
BITMAP
81
42
42
66
24
24
18
18
18
10
20
60
ENDCHAR
STARTCHAR 122
ENCODING 122
SWIDTH 720 0
DWIDTH 10 0
BBX 6 9 2 -1
BITMAP
FC
0C
0C
18
30
60
C0
C0
FC
ENDCHAR
STARTCHAR 123
ENCODING 123
SWIDTH 720 0
DWIDTH 10 0
BBX 5 16 2 -4
BITMAP
38
20
20
20
20
20
20
20
C0
20
20
20
20
20
20
38
ENDCHAR
STARTCHAR 124
ENCODING 124
SWIDTH 720 0
DWIDTH 10 0
BBX 1 16 5 -5
BITMAP
80
80
80
80
80
80
80
80
80
80
80
80
80
80
80
80
ENDCHAR
STARTCHAR 125
ENCODING 125
SWIDTH 720 0
DWIDTH 10 0
BBX 5 17 3 -5
BITMAP
C0
60
60
20
20
20
20
20
18
10
20
20
20
20
60
60
C0
ENDCHAR
STARTCHAR 126
ENCODING 126
SWIDTH 720 0
DWIDTH 10 0
BBX 8 8 1 -2
BITMAP
20
73
5E
8C
20
73
DE
8C
ENDCHAR
STARTCHAR 127
ENCODING 127
SWIDTH 720 0
DWIDTH 10 0
BBX 10 20 0 -6
BITMAP
FFC0
FFC0
FFC0
FFC0
FFC0
FFC0
FFC0
FFC0
FFC0
FFC0
FFC0
FFC0
FFC0
FFC0
FFC0
FFC0
FFC0
FFC0
FFC0
FFC0
ENDCHAR
STARTCHAR 128
ENCODING 128
SWIDTH 720 0
DWIDTH 10 0
BBX 10 17 0 -5
BITMAP
FFC0
F1C0
CEC0
C040
AB40
2B40
2B40
AB40
A840
AB40
A840
AB40
AB40
AB40
2B40
0040
FFC0
ENDCHAR
STARTCHAR 129
ENCODING 129
SWIDTH 720 0
DWIDTH 10 0
BBX 4 18 1 -6
BITMAP
C0
C0
C0
00
C0
C0
C0
C0
C0
F0
F0
C0
C0
C0
00
C0
C0
C0
ENDCHAR
STARTCHAR 130
ENCODING 130
SWIDTH 720 0
DWIDTH 10 0
BBX 8 15 1 -4
BITMAP
E7
C3
C3
81
81
81
81
81
81
81
81
C3
E7
7E
3C
ENDCHAR
STARTCHAR 131
ENCODING 131
SWIDTH 720 0
DWIDTH 10 0
BBX 8 17 1 -5
BITMAP
18
10
18
10
18
18
7E
7E
7E
DB
18
18
3C
10
10
10
10
ENDCHAR
STARTCHAR 132
ENCODING 132
SWIDTH 720 0
DWIDTH 10 0
BBX 9 11 0 -2
BITMAP
0800
0800
0800
2A00
2A00
AA80
2A00
2A00
0800
0800
0800
ENDCHAR
STARTCHAR 133
ENCODING 133
SWIDTH 720 0
DWIDTH 10 0
BBX 8 16 1 -5
BITMAP
38
38
CE
5D
7E
FD
F7
5D
7E
7D
AA
3A
30
10
10
10
ENDCHAR
STARTCHAR 134
ENCODING 134
SWIDTH 720 0
DWIDTH 10 0
BBX 8 14 1 -5
BITMAP
12
4A
38
24
DA
7F
3C
D6
75
EE
A8
50
10
10
ENDCHAR
STARTCHAR 135
ENCODING 135
SWIDTH 720 0
DWIDTH 10 0
BBX 7 16 2 -5
BITMAP
28
68
06
6C
B0
5A
B4
7A
94
32
D8
56
10
10
10
10
ENDCHAR
STARTCHAR 136
ENCODING 136
SWIDTH 720 0
DWIDTH 10 0
BBX 10 20 0 -6
BITMAP
1440
1440
20C0
EB00
2C80
2C80
1040
F300
0C80
0880
D140
2C00
DA40
0280
2D00
2D00
D540
0280
0A80
3540
ENDCHAR
STARTCHAR 137
ENCODING 137
SWIDTH 720 0
DWIDTH 10 0
BBX 10 20 0 -6
BITMAP
C400
E000
9400
0A40
8140
8880
4800
B100
8900
1680
9240
2000
0400
AA00
2A40
D100
9700
6880
9080
ECC0
ENDCHAR
STARTCHAR 138
ENCODING 138
SWIDTH 720 0
DWIDTH 10 0
BBX 10 3 0 2
BITMAP
5540
5540
AA80
ENDCHAR
STARTCHAR 139
ENCODING 139
SWIDTH 720 0
DWIDTH 10 0
BBX 9 19 1 -6
BITMAP
2200
0500
9200
4880
9200
4000
0800
3600
7500
5F00
CD80
8880
0800
8800
0800
4880
4880
4080
7F80
ENDCHAR
STARTCHAR 140
ENCODING 140
SWIDTH 720 0
DWIDTH 10 0
BBX 10 13 0 -5
BITMAP
0180
03C0
0A40
1E40
33C0
7AC0
4440
D7C0
DF80
E100
52C0
FD80
1AC0
ENDCHAR
STARTCHAR 141
ENCODING 141
SWIDTH 720 0
DWIDTH 10 0
BBX 9 20 1 -6
BITMAP
8400
8400
4800
3080
4880
4880
3100
7080
4D00
7600
FF00
FD00
FA00
F400
F800
F800
F800
F800
F800
A800
ENDCHAR
STARTCHAR 142
ENCODING 142
SWIDTH 720 0
DWIDTH 10 0
BBX 10 19 0 -6
BITMAP
0400
0E00
1F00
3F80
7FC0
3FC0
DF80
EF40
F6C0
F9C0
FBC0
FBC0
FBC0
FBC0
7BC0
3BC0
1B80
0B00
0400
ENDCHAR
STARTCHAR 143
ENCODING 143
SWIDTH 720 0
DWIDTH 10 0
BBX 10 20 0 -6
BITMAP
8040
8040
4080
4080
2100
2100
1200
1200
0C00
0C00
0C00
0C00
1200
1200
2100
2100
4080
4080
8040
8040
ENDCHAR
STARTCHAR 144
ENCODING 144
SWIDTH 720 0
DWIDTH 10 0
BBX 10 20 0 -6
BITMAP
8040
8040
4080
4080
2100
2100
1200
1200
0C00
0C00
0C00
0C00
1200
1200
2100
2100
4080
4080
8040
8040
ENDCHAR
STARTCHAR 145
ENCODING 145
SWIDTH 720 0
DWIDTH 10 0
BBX 10 20 0 -6
BITMAP
B680
B680
EAC0
FF40
BF80
BD80
7FC0
CFC0
FF40
FFC0
7FC0
B340
FEC0
7EC0
FFC0
5BC0
FEC0
EFC0
FF00
F7C0
ENDCHAR
STARTCHAR 146
ENCODING 146
SWIDTH 720 0
DWIDTH 10 0
BBX 10 20 0 -6
BITMAP
FFC0
FFC0
7380
2100
8C40
DEC0
FFC0
7380
2100
8C40
DEC0
FFC0
7380
2100
8C40
DEC0
FFC0
7380
2100
8C40
ENDCHAR
STARTCHAR 147
ENCODING 147
SWIDTH 720 0
DWIDTH 10 0
BBX 8 12 1 -4
BITMAP
18
34
56
99
7F
AD
D3
B6
4A
34
18
08
ENDCHAR
STARTCHAR 148
ENCODING 148
SWIDTH 720 0
DWIDTH 10 0
BBX 10 18 0 -6
BITMAP
7B80
5B40
0000
0000
6680
E780
F7C0
33C0
0000
5BC0
FBC0
F9C0
B180
0000
3D80
75C0
3DC0
1800
ENDCHAR
STARTCHAR 149
ENCODING 149
SWIDTH 720 0
DWIDTH 10 0
BBX 10 20 0 -6
BITMAP
F7C0
F640
9BC0
F200
6EC0
EEC0
5640
FC80
7E40
E380
EF80
DF80
74C0
8FC0
F900
5FC0
4F80
7EC0
9AC0
F380
ENDCHAR
STARTCHAR 150
ENCODING 150
SWIDTH 720 0
DWIDTH 10 0
BBX 10 18 0 -6
BITMAP
7B80
5940
73C0
0000
6280
A780
F540
33C0
0000
5AC0
AB80
F940
B180
0000
1D80
75C0
7CC0
1800
ENDCHAR
STARTCHAR 151
ENCODING 151
SWIDTH 720 0
DWIDTH 10 0
BBX 9 10 1 -2
BITMAP
7080
5900
BF80
7E80
CF00
B680
5000
4980
8F00
0600
ENDCHAR
STARTCHAR 152
ENCODING 152
SWIDTH 720 0
DWIDTH 10 0
BBX 10 14 0 -4
BITMAP
0040
00C0
00C0
0180
0380
0700
2600
3C00
3C00
1C00
1E00
3200
6000
C000
ENDCHAR
STARTCHAR 153
ENCODING 153
SWIDTH 720 0
DWIDTH 10 0
BBX 8 18 1 -5
BITMAP
C0
60
38
38
3E
37
33
33
36
3E
33
31
31
33
1E
2E
70
E0
ENDCHAR
STARTCHAR 154
ENCODING 154
SWIDTH 720 0
DWIDTH 10 0
BBX 8 15 1 -3
BITMAP
01
0F
1F
7D
EF
F5
D3
E0
80
80
80
E9
FB
7E
7C
ENDCHAR
STARTCHAR 155
ENCODING 155
SWIDTH 720 0
DWIDTH 10 0
BBX 9 16 0 -4
BITMAP
3C00
3C00
3F00
3380
3180
3180
7180
D180
D180
7180
3180
3180
3380
3380
3F00
3C00
ENDCHAR
STARTCHAR 156
ENCODING 156
SWIDTH 720 0
DWIDTH 10 0
BBX 10 16 0 -5
BITMAP
FF00
7F00
2FC0
19C0
18C0
18C0
18C0
18C0
18C0
18C0
18C0
18C0
18C0
29C0
7FC0
FF00
ENDCHAR
STARTCHAR 157
ENCODING 157
SWIDTH 720 0
DWIDTH 10 0
BBX 10 20 0 -6
BITMAP
8040
8040
4080
4080
2100
2100
1200
1200
0C00
0C00
0C00
0C00
1200
1200
2100
2100
4080
4080
8040
8040
ENDCHAR
STARTCHAR 158
ENCODING 158
SWIDTH 720 0
DWIDTH 10 0
BBX 7 20 2 -6
BITMAP
18
10
10
10
20
20
60
42
7C
84
04
0C
08
18
10
10
50
70
60
70
ENDCHAR
STARTCHAR 159
ENCODING 159
SWIDTH 720 0
DWIDTH 10 0
BBX 10 16 0 -4
BITMAP
0600
6480
2880
2900
3B80
1D40
DE80
7A80
3A80
0A80
26C0
E6C0
3940
34C0
1F40
1EC0
ENDCHAR
STARTCHAR 160
ENCODING 160
SWIDTH 720 0
DWIDTH 10 0
BBX 9 17 1 -4
BITMAP
0C00
0800
8C00
8080
1C80
DC00
C180
DD80
1D80
1C00
1C00
0000
6600
6600
0000
E700
E700
ENDCHAR
STARTCHAR 161
ENCODING 161
SWIDTH 720 0
DWIDTH 10 0
BBX 10 19 0 -6
BITMAP
1980
0600
2940
1780
1EC0
3F40
75C0
F5C0
5140
5F40
6E40
0440
1100
1B80
1980
1980
39C0
2940
5980
ENDCHAR
STARTCHAR 162
ENCODING 162
SWIDTH 720 0
DWIDTH 10 0
BBX 9 20 1 -6
BITMAP
0E00
0A00
6E80
4080
CC80
CC80
C580
ED80
7380
3F00
3E00
3E00
3E00
7F00
FF00
F380
4180
6180
E300
C380
ENDCHAR
STARTCHAR 163
ENCODING 163
SWIDTH 720 0
DWIDTH 10 0
BBX 9 19 1 -6
BITMAP
0680
0280
0380
0180
0180
0080
0080
0180
0180
6180
7380
FF80
FF80
BF80
BF80
EF00
BE00
5C00
3000
ENDCHAR
STARTCHAR 164
ENCODING 164
SWIDTH 720 0
DWIDTH 10 0
BBX 8 18 1 -5
BITMAP
18
74
E8
D8
AE
5E
5B
C1
D8
78
0C
3C
3E
7E
FE
CF
62
03
ENDCHAR
STARTCHAR 165
ENCODING 165
SWIDTH 720 0
DWIDTH 10 0
BBX 10 18 0 -5
BITMAP
0400
0A00
0400
2080
2480
2AC0
7FC0
5EC0
7FC0
FFC0
FF40
D740
DD40
4EC0
5E40
4B00
0A00
1B00
ENDCHAR
STARTCHAR 166
ENCODING 166
SWIDTH 720 0
DWIDTH 10 0
BBX 10 18 0 -6
BITMAP
07C0
0680
1DC0
1FC0
1BC0
1740
1EC0
15C0
3F80
5780
EB00
9800
DE00
1E00
0F80
17C0
25C0
2880
ENDCHAR
STARTCHAR 167
ENCODING 167
SWIDTH 720 0
DWIDTH 10 0
BBX 10 14 0 -6
BITMAP
D800
5000
70C0
5040
7840
7F40
7F80
7F80
3F80
3FC0
2DC0
29C0
2940
6B40
ENDCHAR
STARTCHAR 168
ENCODING 168
SWIDTH 720 0
DWIDTH 10 0
BBX 10 18 0 -6
BITMAP
0E00
1A80
0EC0
1E80
C5C0
A500
7700
FF40
3EC0
1EC0
1F80
0F80
0700
0700
0700
1F00
3FC0
32C0
ENDCHAR
STARTCHAR 169
ENCODING 169
SWIDTH 720 0
DWIDTH 10 0
BBX 10 18 0 -5
BITMAP
2080
4040
5140
D140
D540
9B40
6EC0
B580
DF40
6E40
6AC0
2E80
C4C0
6E80
3F80
0E00
4E00
AAC0
ENDCHAR
STARTCHAR 170
ENCODING 170
SWIDTH 720 0
DWIDTH 10 0
BBX 10 20 0 -6
BITMAP
8C00
9EC0
5240
BE80
5F00
1E00
3E80
1F00
2E80
1500
AE80
DF40
7FC0
6EC0
3580
7FC0
5F40
9F00
0E40
0E00
ENDCHAR
STARTCHAR 171
ENCODING 171
SWIDTH 720 0
DWIDTH 10 0
BBX 10 16 0 -4
BITMAP
4000
2440
34C0
0480
8400
5F40
3180
3100
2080
6580
B100
9380
1F40
0400
2480
4440
ENDCHAR
STARTCHAR 172
ENCODING 172
SWIDTH 720 0
DWIDTH 10 0
BBX 8 17 1 -5
BITMAP
0E
31
6F
71
3B
1F
17
0E
36
1E
2C
18
58
30
60
E0
80
ENDCHAR
STARTCHAR 173
ENCODING 173
SWIDTH 720 0
DWIDTH 10 0
BBX 10 12 0 -5
BITMAP
00C0
0040
2040
2840
7840
5B80
6FC0
7FC0
5FC0
7FC0
F9C0
9340
ENDCHAR
STARTCHAR 174
ENCODING 174
SWIDTH 720 0
DWIDTH 10 0
BBX 10 13 0 -3
BITMAP
03C0
0440
0AC0
1040
2340
1340
C040
20C0
2080
7A00
5800
3000
6000
ENDCHAR
STARTCHAR 175
ENCODING 175
SWIDTH 720 0
DWIDTH 10 0
BBX 10 14 0 -4
BITMAP
0F00
0500
0640
0C40
1E40
1F40
3D40
3D80
7C00
7E00
7F00
F900
E100
3180
ENDCHAR
STARTCHAR 176
ENCODING 176
SWIDTH 720 0
DWIDTH 10 0
BBX 6 16 3 -5
BITMAP
60
60
60
00
20
30
38
3C
34
74
74
B0
30
30
30
30
ENDCHAR
STARTCHAR 177
ENCODING 177
SWIDTH 720 0
DWIDTH 10 0
BBX 9 17 1 -5
BITMAP
0180
1980
2500
2D00
2500
3D00
6F80
5480
EB00
C300
EE00
D400
BA00
3E00
3600
3600
7700
ENDCHAR
STARTCHAR 178
ENCODING 178
SWIDTH 720 0
DWIDTH 10 0
BBX 8 18 2 -5
BITMAP
40
30
31
21
32
2A
54
78
58
64
B8
78
78
68
48
48
48
CC
ENDCHAR
STARTCHAR 179
ENCODING 179
SWIDTH 720 0
DWIDTH 10 0
BBX 10 19 0 -5
BITMAP
4040
4040
4040
3E80
0900
0B00
0680
34C0
60C0
E840
C940
6F40
6040
0000
1980
19C0
10C0
0000
30C0
ENDCHAR
STARTCHAR 180
ENCODING 180
SWIDTH 720 0
DWIDTH 10 0
BBX 9 18 1 -6
BITMAP
0400
0880
0000
0000
1980
7E80
7F80
7D80
7980
5300
D780
C780
7E00
7E00
7600
7200
2000
8000
ENDCHAR
STARTCHAR 181
ENCODING 181
SWIDTH 720 0
DWIDTH 10 0
BBX 10 14 0 -2
BITMAP
0040
00C0
3DC0
3D80
6F80
6600
7000
3FC0
3FC0
1C40
0040
3FC0
5FC0
F9C0
ENDCHAR
STARTCHAR 182
ENCODING 182
SWIDTH 720 0
DWIDTH 10 0
BBX 10 17 0 -5
BITMAP
6A00
2E00
4A00
6680
4400
4A80
5E80
5580
F600
4A00
4700
4B80
58C0
4880
58C0
4880
18C0
ENDCHAR
STARTCHAR 183
ENCODING 183
SWIDTH 720 0
DWIDTH 10 0
BBX 10 20 0 -6
BITMAP
8980
8900
EF40
3FC0
3500
7F40
DBC0
8E00
0E00
3F80
6E80
F540
4F00
1600
1E00
1F00
1F00
3E00
0200
6180
ENDCHAR
STARTCHAR 184
ENCODING 184
SWIDTH 720 0
DWIDTH 10 0
BBX 10 17 0 -5
BITMAP
0400
2000
1540
8000
4480
1F00
9500
3B80
3500
BB80
1500
1B00
2E00
8080
1400
8040
2400
ENDCHAR
STARTCHAR 185
ENCODING 185
SWIDTH 720 0
DWIDTH 10 0
BBX 10 18 0 -6
BITMAP
4900
C600
4600
2600
32C0
17C0
3F40
6E80
7F40
CDC0
E2C0
7580
1BC0
1980
1080
1980
1080
20C0
ENDCHAR
STARTCHAR 186
ENCODING 186
SWIDTH 720 0
DWIDTH 10 0
BBX 10 16 0 -5
BITMAP
1800
0C40
0E40
0A00
1E40
3F40
3EC0
5F40
5EC0
9F40
BF40
DFC0
3FC0
3FC0
FFC0
5F40
ENDCHAR
STARTCHAR 187
ENCODING 187
SWIDTH 720 0
DWIDTH 10 0
BBX 9 16 1 -5
BITMAP
0400
0E00
8E00
9A00
BF00
BF80
7B80
7E80
6E00
1F00
1F00
1B00
1B00
1100
3180
7180
ENDCHAR
STARTCHAR 188
ENCODING 188
SWIDTH 720 0
DWIDTH 10 0
BBX 10 19 0 -6
BITMAP
8000
C000
4E00
6A00
2E00
3400
1C00
7BC0
5FC0
05C0
3EC0
14C0
2BC0
3280
6100
2180
2100
4300
E180
ENDCHAR
STARTCHAR 189
ENCODING 189
SWIDTH 720 0
DWIDTH 10 0
BBX 10 20 0 -6
BITMAP
A280
2280
AF40
59C0
7940
7D40
70C0
60C0
D940
D940
7980
3980
1180
1180
34C0
0440
3900
7900
AA00
4A40
ENDCHAR
STARTCHAR 190
ENCODING 190
SWIDTH 720 0
DWIDTH 10 0
BBX 10 19 0 -5
BITMAP
0780
0780
0480
1F80
3E80
3F80
71C0
70C0
C440
D040
9B40
EE40
2B40
1300
2D00
6980
AD40
6180
EDC0
ENDCHAR
STARTCHAR 191
ENCODING 191
SWIDTH 720 0
DWIDTH 10 0
BBX 10 16 0 -5
BITMAP
07C0
0580
0F00
03C0
1F80
7F00
7F00
FF00
FF80
FC80
FEC0
DE00
D600
D200
DB00
6800
ENDCHAR
STARTCHAR 192
ENCODING 192
SWIDTH 720 0
DWIDTH 10 0
BBX 9 18 1 -5
BITMAP
0800
0C00
0B00
CF00
CF00
4C00
4E80
4F00
5F80
7E80
3C00
1C00
3C00
3800
3800
1400
1200
0800
ENDCHAR
STARTCHAR 193
ENCODING 193
SWIDTH 720 0
DWIDTH 10 0
BBX 10 15 0 -4
BITMAP
3F00
3F00
6180
DEC0
DF40
B3C0
B3C0
B340
B7C0
BFC0
5E80
4C80
7280
3F80
0080
ENDCHAR
STARTCHAR 194
ENCODING 194
SWIDTH 720 0
DWIDTH 10 0
BBX 10 11 0 -6
BITMAP
1000
1C00
3780
FFC0
3FC0
1FC0
07C0
05C0
0940
0040
0080
ENDCHAR
STARTCHAR 195
ENCODING 195
SWIDTH 720 0
DWIDTH 10 0
BBX 10 19 0 -5
BITMAP
1800
1D00
3680
FE80
FEC0
1F40
7F40
FF40
1F40
1F40
7FC0
2FC0
6F80
0F80
0F80
0F80
0F00
0900
1B00
ENDCHAR
STARTCHAR 196
ENCODING 196
SWIDTH 720 0
DWIDTH 10 0
BBX 9 18 1 -5
BITMAP
F800
DC00
3C00
FC00
1E00
7E00
5E00
3E00
3F00
3F00
1F80
1F80
1F80
3E80
3E80
3600
1200
7600
ENDCHAR
STARTCHAR 197
ENCODING 197
SWIDTH 720 0
DWIDTH 10 0
BBX 10 19 0 -6
BITMAP
0A00
AE80
4440
AE80
4A40
4E40
4080
3F80
1500
0E00
0400
0E00
1B00
0A00
0A00
1B00
0A00
0A00
1100
ENDCHAR
STARTCHAR 198
ENCODING 198
SWIDTH 720 0
DWIDTH 10 0
BBX 10 12 0 -3
BITMAP
4040
2480
1F00
8E40
7F80
1E00
1F00
7FC0
9F00
2E80
2480
4040
ENDCHAR
STARTCHAR 199
ENCODING 199
SWIDTH 720 0
DWIDTH 10 0
BBX 9 17 1 -4
BITMAP
0C00
1200
2D00
2D80
3380
7F80
E280
B680
B680
F680
1E80
7E00
3700
3300
3300
7380
D280
ENDCHAR
STARTCHAR 200
ENCODING 200
SWIDTH 720 0
DWIDTH 10 0
BBX 8 12 1 -3
BITMAP
78
DC
D6
C6
E6
83
B1
E7
E7
D7
D6
7E
ENDCHAR
STARTCHAR 201
ENCODING 201
SWIDTH 720 0
DWIDTH 10 0
BBX 10 18 0 -6
BITMAP
2040
2AC0
5B00
5F00
CA80
54C0
B040
A8C0
94C0
CE80
2A00
0700
1900
1080
1980
1100
1000
0900
ENDCHAR
STARTCHAR 202
ENCODING 202
SWIDTH 720 0
DWIDTH 10 0
BBX 10 17 0 -5
BITMAP
0700
0D00
0700
8300
C780
77C0
1740
1600
1E00
1F00
0F00
0D80
0EC0
0240
0440
0C00
0800
ENDCHAR
STARTCHAR 203
ENCODING 203
SWIDTH 720 0
DWIDTH 10 0
BBX 10 18 0 -6
BITMAP
0E00
1140
A0C0
EAC0
E0C0
EEC0
EAC0
E0C0
7F80
3F80
2EC0
2E80
3580
3580
3580
3B80
7FC0
1F00
ENDCHAR
STARTCHAR 204
ENCODING 204
SWIDTH 720 0
DWIDTH 10 0
BBX 10 18 0 -6
BITMAP
0700
0F80
1B00
1980
1980
1F80
3FC0
7FC0
6740
CF00
CF00
9F00
1F80
1F80
1F80
1F80
3980
0780
ENDCHAR
STARTCHAR 205
ENCODING 205
SWIDTH 720 0
DWIDTH 10 0
BBX 9 20 1 -6
BITMAP
0080
0180
2880
0180
2880
2980
1080
4580
6C80
7E80
7E80
FB80
D500
CC80
DC80
AC00
FC00
FC00
4400
7600
ENDCHAR
STARTCHAR 206
ENCODING 206
SWIDTH 720 0
DWIDTH 10 0
BBX 10 20 0 -6
BITMAP
7000
7000
BFC0
F740
FAC0
9DC0
7DC0
7DC0
7DC0
3FC0
7F80
6F80
CE80
B500
1F80
3F80
3380
3380
7700
7700
ENDCHAR
STARTCHAR 207
ENCODING 207
SWIDTH 720 0
DWIDTH 10 0
BBX 10 12 0 -1
BITMAP
3800
1C00
0C00
0E00
FF80
1FC0
FFC0
1FC0
37C0
EDC0
18C0
6000
ENDCHAR
STARTCHAR 208
ENCODING 208
SWIDTH 720 0
DWIDTH 10 0
BBX 9 18 1 -5
BITMAP
0800
1C00
1400
0800
4080
AE80
B380
1800
1400
0C00
1A00
0C00
3400
1000
0400
1400
1600
2300
ENDCHAR
STARTCHAR 209
ENCODING 209
SWIDTH 720 0
DWIDTH 10 0
BBX 10 17 0 -5
BITMAP
FF00
7F80
3F80
19C0
18C0
18C0
F0C0
60C0
30C0
18C0
18C0
18C0
F0C0
61C0
31C0
1F80
1F00
ENDCHAR
STARTCHAR 210
ENCODING 210
SWIDTH 720 0
DWIDTH 10 0
BBX 10 18 0 -5
BITMAP
FF00
7F80
29C0
29C0
F8C0
78C0
28C0
28C0
38C0
F8C0
68C0
28C0
38C0
F0C0
61C0
3FC0
1F80
1E00
ENDCHAR
STARTCHAR 211
ENCODING 211
SWIDTH 720 0
DWIDTH 10 0
BBX 8 16 1 -4
BITMAP
F8
7E
66
66
63
77
63
63
63
73
63
67
7E
7E
4A
A5
ENDCHAR
STARTCHAR 212
ENCODING 212
SWIDTH 720 0
DWIDTH 10 0
BBX 10 18 0 -5
BITMAP
1F00
7F80
F9C0
F9C0
D8C0
9DC0
98C0
18C0
18C0
1AC0
18C0
19C0
3F80
7F80
2AC0
29C0
7940
D280
ENDCHAR
STARTCHAR 213
ENCODING 213
SWIDTH 720 0
DWIDTH 10 0
BBX 10 15 0 -3
BITMAP
FE00
7F00
3F00
21C0
E4C0
64C0
24C0
24C0
E4C0
6EC0
24C0
21C0
3FC0
7F80
FF00
ENDCHAR
STARTCHAR 214
ENCODING 214
SWIDTH 720 0
DWIDTH 10 0
BBX 8 14 1 -3
BITMAP
08
1C
36
63
63
F3
BE
9C
C8
61
63
36
1C
18
ENDCHAR
STARTCHAR 215
ENCODING 215
SWIDTH 720 0
DWIDTH 10 0
BBX 7 16 1 -4
BITMAP
54
7E
FE
82
80
80
A8
FC
DC
88
80
80
82
FE
7E
54
ENDCHAR
STARTCHAR 216
ENCODING 216
SWIDTH 720 0
DWIDTH 10 0
BBX 8 16 1 -5
BITMAP
08
1C
36
63
E3
66
34
1C
1F
1E
14
24
6C
4C
78
30
ENDCHAR
STARTCHAR 217
ENCODING 217
SWIDTH 720 0
DWIDTH 10 0
BBX 8 16 1 -4
BITMAP
01
3F
7F
7F
E3
C1
80
82
86
8F
8F
C3
E3
FF
7E
FC
ENDCHAR
STARTCHAR 218
ENCODING 218
SWIDTH 720 0
DWIDTH 10 0
BBX 8 15 2 -4
BITMAP
26
26
26
60
E0
E0
60
60
78
7C
7C
4C
4D
6F
67
ENDCHAR
STARTCHAR 219
ENCODING 219
SWIDTH 720 0
DWIDTH 10 0
BBX 8 15 1 -4
BITMAP
24
6E
6C
6E
E6
6E
64
60
78
7C
7C
6C
6D
6F
67
ENDCHAR
STARTCHAR 220
ENCODING 220
SWIDTH 720 0
DWIDTH 10 0
BBX 9 16 1 -4
BITMAP
1080
3180
6300
6300
6300
2100
2100
6300
7F00
7700
2100
2100
2100
2100
7380
F780
ENDCHAR
STARTCHAR 221
ENCODING 221
SWIDTH 720 0
DWIDTH 10 0
BBX 8 17 1 -4
BITMAP
02
07
07
06
00
00
04
04
06
06
06
06
C6
C4
8C
FC
30
ENDCHAR
STARTCHAR 222
ENCODING 222
SWIDTH 720 0
DWIDTH 10 0
BBX 10 15 0 -4
BITMAP
07C0
0380
0380
0180
0100
0080
0180
0100
0080
F980
7100
6080
7180
3F80
1F00
ENDCHAR
STARTCHAR 223
ENCODING 223
SWIDTH 720 0
DWIDTH 10 0
BBX 8 16 1 -4
BITMAP
E0
60
20
40
60
60
20
40
60
61
21
43
63
63
76
ED
ENDCHAR
STARTCHAR 224
ENCODING 224
SWIDTH 720 0
DWIDTH 10 0
BBX 8 16 1 -4
BITMAP
F8
F0
70
70
70
70
70
70
70
70
71
73
73
FF
FF
FF
ENDCHAR
STARTCHAR 225
ENCODING 225
SWIDTH 720 0
DWIDTH 10 0
BBX 8 14 1 -5
BITMAP
FC
7E
7E
33
33
33
33
3E
3E
3C
20
20
20
20
ENDCHAR
STARTCHAR 226
ENCODING 226
SWIDTH 720 0
DWIDTH 10 0
BBX 9 13 1 -5
BITMAP
FF00
7300
3180
3180
F180
7300
3F00
3E00
3000
3000
3000
3000
2000
ENDCHAR
STARTCHAR 227
ENCODING 227
SWIDTH 720 0
DWIDTH 10 0
BBX 8 14 1 -5
BITMAP
DE
53
33
33
D3
53
33
F2
5E
50
30
30
30
10
ENDCHAR
STARTCHAR 228
ENCODING 228
SWIDTH 720 0
DWIDTH 10 0
BBX 8 16 1 -5
BITMAP
08
81
4A
00
FF
3F
73
31
33
3E
32
3C
30
30
30
10
ENDCHAR
STARTCHAR 229
ENCODING 229
SWIDTH 720 0
DWIDTH 10 0
BBX 8 18 1 -6
BITMAP
73
9E
9E
00
00
FE
7F
33
33
F3
73
33
3F
FE
70
30
10
10
ENDCHAR
STARTCHAR 230
ENCODING 230
SWIDTH 720 0
DWIDTH 10 0
BBX 8 16 1 -5
BITMAP
3E
3E
3E
00
00
FC
7E
33
33
33
3E
3C
20
20
20
20
ENDCHAR
STARTCHAR 231
ENCODING 231
SWIDTH 720 0
DWIDTH 10 0
BBX 9 17 0 -6
BITMAP
3F00
3F00
3F00
0000
0000
FF00
7300
3180
3180
F180
7380
3F00
3E00
3000
3000
3000
2000
ENDCHAR
STARTCHAR 232
ENCODING 232
SWIDTH 720 0
DWIDTH 10 0
BBX 9 16 0 -4
BITMAP
FE00
7F00
7F80
3380
3180
3180
3380
3F80
3F00
3000
3000
3000
3000
7000
7000
F000
ENDCHAR
STARTCHAR 233
ENCODING 233
SWIDTH 720 0
DWIDTH 10 0
BBX 8 16 1 -6
BITMAP
04
04
0C
3C
7C
E4
C4
C4
E4
7C
3C
04
05
07
06
04
ENDCHAR
STARTCHAR 234
ENCODING 234
SWIDTH 720 0
DWIDTH 10 0
BBX 9 18 1 -5
BITMAP
8000
C000
FE00
FE00
7F00
6300
C180
C180
C080
C080
C080
C080
C480
4780
7300
7F80
3F80
0080
ENDCHAR
STARTCHAR 235
ENCODING 235
SWIDTH 720 0
DWIDTH 10 0
BBX 9 18 1 -5
BITMAP
8080
C180
FF80
FF80
7F00
6300
C180
C180
C080
C080
C080
C080
C480
4780
7300
7F80
3F80
0080
ENDCHAR
STARTCHAR 236
ENCODING 236
SWIDTH 720 0
DWIDTH 10 0
BBX 9 16 0 -4
BITMAP
FC00
7E00
7E00
2300
2100
2300
3E00
3E00
3C00
2E00
2600
2600
2300
2180
2180
6080
ENDCHAR
STARTCHAR 237
ENCODING 237
SWIDTH 720 0
DWIDTH 10 0
BBX 9 11 1 -2
BITMAP
0600
3F80
1F80
3080
3C00
7E00
0700
4300
7E00
FC00
3000
ENDCHAR
STARTCHAR 238
ENCODING 238
SWIDTH 720 0
DWIDTH 10 0
BBX 9 17 1 -5
BITMAP
0080
1C80
3E80
7F80
7F80
7380
6100
7000
3800
1E00
0700
0100
4100
E300
FF00
BE00
9C00
ENDCHAR
STARTCHAR 239
ENCODING 239
SWIDTH 720 0
DWIDTH 10 0
BBX 8 10 1 -4
BITMAP
42
C3
C3
81
81
C3
E7
FE
7E
3C
ENDCHAR
STARTCHAR 240
ENCODING 240
SWIDTH 720 0
DWIDTH 10 0
BBX 8 18 1 -5
BITMAP
80
80
C0
8C
C7
83
C3
C3
C3
C3
C3
C3
C3
C3
C3
E7
7E
3C
ENDCHAR
STARTCHAR 241
ENCODING 241
SWIDTH 720 0
DWIDTH 10 0
BBX 8 18 1 -5
BITMAP
81
81
81
81
81
C3
C3
C3
C3
C3
C3
C3
C3
C3
C3
C3
7E
3C
ENDCHAR
STARTCHAR 242
ENCODING 242
SWIDTH 720 0
DWIDTH 10 0
BBX 9 18 1 -5
BITMAP
8080
B680
9480
D480
C180
D580
C980
C180
C180
C180
C180
C180
C180
E380
7380
7700
3F00
1E00
ENDCHAR
STARTCHAR 243
ENCODING 243
SWIDTH 720 0
DWIDTH 10 0
BBX 10 10 0 -5
BITMAP
60C0
2080
B180
1100
5B40
1B00
2E80
0E00
1500
0400
ENDCHAR
STARTCHAR 244
ENCODING 244
SWIDTH 720 0
DWIDTH 10 0
BBX 10 17 0 -5
BITMAP
1400
0800
0280
2900
1000
0000
4040
60C0
2080
B180
1100
5B40
1B00
2E80
0E00
1500
0400
ENDCHAR
STARTCHAR 245
ENCODING 245
SWIDTH 720 0
DWIDTH 10 0
BBX 9 15 1 -5
BITMAP
7F00
7F00
0000
0000
C180
C180
4100
6300
2200
B680
3600
5D00
1C00
2A00
0800
ENDCHAR
STARTCHAR 246
ENCODING 246
SWIDTH 720 0
DWIDTH 10 0
BBX 10 12 0 -3
BITMAP
A000
E1C0
C1C0
C080
4080
6080
6480
2D00
2D00
3300
3300
1200
ENDCHAR
STARTCHAR 247
ENCODING 247
SWIDTH 720 0
DWIDTH 10 0
BBX 9 18 1 -5
BITMAP
8000
8000
8000
8080
C100
C080
C100
C080
C100
C180
C180
4900
5D00
7F00
7700
6300
4100
4100
ENDCHAR
STARTCHAR 248
ENCODING 248
SWIDTH 720 0
DWIDTH 10 0
BBX 9 18 1 -5
BITMAP
8600
8600
B000
B000
8480
C480
C480
C080
C180
C180
C980
4980
5D80
7F80
7700
6300
4100
4100
ENDCHAR
STARTCHAR 249
ENCODING 249
SWIDTH 720 0
DWIDTH 10 0
BBX 9 18 1 -5
BITMAP
8080
8080
8080
8080
C080
C980
C980
C980
C980
C980
C980
CD80
DD80
F780
F380
E380
C180
8080
ENDCHAR
STARTCHAR 250
ENCODING 250
SWIDTH 720 0
DWIDTH 10 0
BBX 9 10 1 -2
BITMAP
3F80
7F00
C300
C600
8C00
0800
1800
3080
3F80
7F00
ENDCHAR
STARTCHAR 251
ENCODING 251
SWIDTH 720 0
DWIDTH 10 0
BBX 7 15 2 -4
BITMAP
FE
FE
8E
82
86
0E
0C
18
30
60
62
E2
E2
FE
FE
ENDCHAR
STARTCHAR 252
ENCODING 252
SWIDTH 720 0
DWIDTH 10 0
BBX 10 18 0 -5
BITMAP
FF80
7F80
3F80
2180
7180
2300
0600
0600
0C00
1800
3000
3000
3000
7F80
FF80
0080
01C0
0080
ENDCHAR
STARTCHAR 253
ENCODING 253
SWIDTH 720 0
DWIDTH 10 0
BBX 10 16 0 -4
BITMAP
B540
6A80
BFC0
0180
0100
0280
0780
0500
0A00
1C00
1400
3800
3800
5540
2A80
7DC0
ENDCHAR
STARTCHAR 254
ENCODING 254
SWIDTH 720 0
DWIDTH 10 0
BBX 9 16 1 -4
BITMAP
FF80
7F80
7F80
3F80
0700
0F00
0E00
1E00
1C00
3C00
7800
F000
F000
FE00
FF00
FF80
ENDCHAR
STARTCHAR 255
ENCODING 255
SWIDTH 720 0
DWIDTH 10 0
BBX 10 16 0 -4
BITMAP
2180
3380
7FC0
CCC0
0180
0180
0300
0600
0600
0C00
1800
3800
2200
6F00
7DC0
3080
ENDCHAR
ENDFONT
